<svg id="Слой_1" data-name="Слой 1" xmlns="http://www.w3.org/2000/svg" viewBox="0 0 227.58 9.47"><defs><style>.cls-1{fill:#fff;}</style></defs><title>logo</title><path d="M177.51,306.24H175.2v-7.49h-4.08v7.49h-2.4c0-2.35,0-4.7,0-7.05,0-1.71.5-2.27,2.19-2.28,3.58,0,7.17,0,10.75,0,1.7,0,2.17.56,2.18,2.27,0,2.36,0,4.71,0,7.06h-2.4v-7.48h-3.88" transform="translate(-84.95 -296.77)"/><path d="M142.56,306.24c-2.12,0-2-.82-2-2.82,0-1.52,0-3,0-4.55s.51-1.91,1.89-1.94q4.48-.09,9,0c1.44,0,1.91.58,1.95,2s0,2.95,0,4.43c0,2.08,0,2.87-1.95,2.87Zm.51-2h7.81v-5.6h-7.81Z" transform="translate(-84.95 -296.77)"/><path d="M271.2,306.24c-1.93,0-1.92-.8-1.92-2.9,0-1.48,0-3,0-4.43s.5-2,1.86-2c3-.06,6.07-.06,9.1,0,1.38,0,1.81.58,1.83,2s0,3,0,4.55,0,2.77-1.79,2.77Zm8.35-2v-5.65h-7.72v5.65Z" transform="translate(-84.95 -296.77)"/><path d="M233.28,306.24v-1.89h9v-2.09h-5.41c-.64,0-1.28,0-1.91-.07-.35,0-1.09,0-1.45-.63a6.44,6.44,0,0,1-.26-3.5c.1-1,1.14-1.12,2-1.14,2,0,3.92,0,5.88,0h3.37v1.62h-9v1.95h2.56c1.52,0,3,0,4.55.05s1.82.56,1.91,1.95c0,.28,0,.56,0,.84,0,2-.15,2.82-1.9,2.94Z" transform="translate(-84.95 -296.77)"/><path d="M257.09,300.48c1.88.06,2.33.53,2.36,2.37v.48c0,2.06,0,2.91-1.93,2.91h-9.3c0-.58-.09-1.14-.09-1.87h9.06v-2.11h-6c-2.76,0-3.51-.56-3.1-4.2.11-.89,1.25-1.07,1.76-1.08,3.15-.09,6.3-.05,9.5-.05v1.58h-8.95v1.95" transform="translate(-84.95 -296.77)"/><path d="M301.27,306.12v-1.78h9v-2.08h-6.2c-2.45,0-2.84-.41-2.82-2.87,0-2,.48-2.48,2.47-2.5,2.87,0,5.75,0,8.71,0v1.59h-8.95v2h3.44c1,0,1.91,0,2.87,0,2.47-.08,2.74.51,2.74,2.76,0,2.09,0,3-2,3C307.52,306.24,304.31,306.12,301.27,306.12Z" transform="translate(-84.95 -296.77)"/><path d="M214.8,306.24h-3.36c-1-.88-4.19-3.52-4.19-3.52s-1.47,0-2.29,0v3.5h-2.4V301h2.5c1.72,0,3.44,0,5.16,0,.94,0,1.25-.34,1.26-1.27s-.4-1.25-1.3-1.24c-2.12,0-4.24,0-6.36,0h-1.21v-1.59c3.25,0,6.44,0,9.62,0,1,0,1.53.5,1.58,1.68,0,.2.07,1.44.07,1.64.06,2.31-.13,2.22-3.53,2.44" transform="translate(-84.95 -296.77)"/><path d="M104.64,306.24c-2,0-2-.83-2-2.93s0-4.22,0-6.38H105v7.31h6.86V297h2.49v2.55c0,1.28,0,2.56,0,3.84,0,2.11-.24,2.89-1.83,2.89Z" transform="translate(-84.95 -296.77)"/><path d="M285.84,306.24c0-2.4,0-4.8,0-7.2,0-1.56.49-2.1,2.08-2.13q3.78-.07,7.56,0c1.6,0,2.09.59,2.11,2.26,0,2.35,0,4.71,0,7.07h-2.4v-7.49h-7v7.49Z" transform="translate(-84.95 -296.77)"/><path d="M118.08,306.24v-1.92c1.8,0,3.55,0,5.29,0a13.8,13.8,0,0,0,2.49-.21,2.75,2.75,0,0,0-.23-5.46c-1.91-.14-3.83-.07-5.74-.09h-1.75v-1.48c2.89,0,5.77-.19,8.6.05a4.05,4.05,0,0,1,4,4.16,4.5,4.5,0,0,1-3.72,4.77,6.76,6.76,0,0,1-1.49.19Z" transform="translate(-84.95 -296.77)"/><path class="cls-1" d="M288.24,306.24v-7.49h7v7.49Z" transform="translate(-84.95 -296.77)"/><path d="M189.84,306.24h-2.16v-5.33c2.5,0,5,0,7.45,0,.92,0,1.42-.24,1.38-1.29,0-.83-.37-1.12-1.17-1.11-2.52,0-5,0-7.67,0v-1.59c3.19,0,6.37,0,9.56,0,1,0,1.65.24,1.65,2.62,0,2.78-.16,3-3.53,3l-4.8,0a6.46,6.46,0,0,0-.73,0" transform="translate(-84.95 -296.77)"/><path d="M99,306.24H96.24l-4.38-7.54-4.5,7.54H85c.47-.75,2.1-3.27,2.23-3.48,1.66-2.68,1.56-2.64,3.25-5.31a2.06,2.06,0,0,1,2.91-.15" transform="translate(-84.95 -296.77)"/><path class="cls-1" d="M87.36,306.24l4.5-7.54,4.38,7.54Z" transform="translate(-84.95 -296.77)"/><path d="M164.88,306.24h-2.16V297h2.18" transform="translate(-84.95 -296.77)"/><path d="M265.44,306.24h-2.25c-.07-4,0-2.68,0-4V297h2.31" transform="translate(-84.95 -296.77)"/><path d="M134.4,306.24V297h2.4v9.27Z" transform="translate(-84.95 -296.77)"/><path d="M218.64,306.24v-1.85h10.93v1.85Z" transform="translate(-84.95 -296.77)"/><path d="M218.64,302.11v-1.59h10.93v1.59Z" transform="translate(-84.95 -296.77)"/><path d="M229.57,297v1.46H218.68V297Z" transform="translate(-84.95 -296.77)"/><path class="cls-1" d="M143.07,304.22v-5.6h7.81v5.6Z" transform="translate(-84.95 -296.77)"/><path class="cls-1" d="M279.55,304.28h-7.72v-5.65h7.72Z" transform="translate(-84.95 -296.77)"/></svg>